<?xml version="1.0" encoding="utf-8" ?>
<svg xmlns="http://www.w3.org/2000/svg" xmlns:xlink="http://www.w3.org/1999/xlink" width="600" height="400">
	<rect fill="white" width="600" height="400"/>
	<clipPath id="cl_4">
		<rect y="31.146484" width="600" height="368.85352"/>
	</clipPath>
	<g clip-path="url(#cl_4)">
		<path fill="#DFF0D0" transform="translate(300 215.573)" d="M0 0L0 -133.643Q3.28074 -133.643 6.55753 -133.482Q9.83432 -133.321 13.0993 -132.999Q16.3642 -132.677 19.6094 -132.196Q22.8547 -131.715 26.0724 -131.075Q29.2901 -130.435 32.4725 -129.637Q35.6549 -128.84 38.7944 -127.888Q41.9339 -126.936 45.0228 -125.83Q48.1118 -124.725 51.1428 -123.47Q54.1738 -122.214 57.1396 -120.811Q60.1053 -119.409 62.9987 -117.862Q65.892 -116.316 68.706 -114.629Q71.52 -112.942 74.2478 -111.12Q76.9757 -109.297 79.6108 -107.343Q82.2459 -105.388 84.782 -103.307Q87.318 -101.226 89.7489 -99.0226Q92.1797 -96.8194 94.4996 -94.4996Q96.8194 -92.1797 99.0226 -89.7489Q101.226 -87.318 103.307 -84.782Q105.388 -82.2459 107.343 -79.6108Q109.297 -76.9757 111.12 -74.2478Q112.942 -71.52 114.629 -68.706Q116.316 -65.892 117.862 -62.9987Q119.409 -60.1053 120.811 -57.1396Q122.214 -54.1738 123.47 -51.1428Q124.725 -48.1118 125.83 -45.0228Q126.936 -41.9339 127.888 -38.7944Q128.84 -35.6549 129.637 -32.4725Q130.435 -29.2901 131.075 -26.0724Q131.715 -22.8547 132.196 -19.6094Q132.677 -16.3642 132.999 -13.0993Q133.321 -9.83432 133.482 -6.55753Q133.643 -3.28074 133.643 0Q133.643 2.91609 133.515 5.82941Q133.388 8.74273 133.134 11.6477Q132.88 14.5527 132.499 17.4439Q132.119 20.335 131.612 23.2068Q131.106 26.0786 130.475 28.9256Q129.844 31.7725 129.089 34.5892Q128.334 37.406 127.457 40.1871Q126.58 42.9682 125.583 45.7085Q124.586 48.4487 123.47 51.1428Q122.354 53.8369 121.121 56.4798Q119.889 59.1227 118.542 61.7093Q117.196 64.2959 115.738 66.8213Q114.28 69.3467 112.713 71.8061Q111.146 74.2655 109.474 76.6542Q107.801 79.043 106.026 81.3565Q104.251 83.6699 102.376 85.9038Q100.502 88.1377 98.5317 90.2876Q96.5616 92.4376 94.4996 94.4996Q92.4376 96.5616 90.2876 98.5317Q88.1377 100.502 85.9038 102.376Q83.6699 104.251 81.3565 106.026Q79.043 107.801 76.6542 109.474Q74.2655 111.146 71.8061 112.713Q69.3467 114.28 66.8213 115.738Q64.2959 117.196 61.7093 118.542Q59.1227 119.889 56.4798 121.121Q53.8369 122.354 51.1428 123.47Q48.4487 124.586 45.7085 125.583Q42.9682 126.58 40.1871 127.457Q37.406 128.334 34.5892 129.089Q31.7725 129.844 28.9256 130.475Q26.0786 131.106 23.2068 131.612L0 0Z"/>
		<path fill="none" stroke="black" stroke-width="1" stroke-miterlimit="4" transform="translate(300 215.573)" d="M0 0L0 -133.643Q3.28074 -133.643 6.55753 -133.482Q9.83432 -133.321 13.0993 -132.999Q16.3642 -132.677 19.6094 -132.196Q22.8547 -131.715 26.0724 -131.075Q29.2901 -130.435 32.4725 -129.637Q35.6549 -128.84 38.7944 -127.888Q41.9339 -126.936 45.0228 -125.83Q48.1118 -124.725 51.1428 -123.47Q54.1738 -122.214 57.1396 -120.811Q60.1053 -119.409 62.9987 -117.862Q65.892 -116.316 68.706 -114.629Q71.52 -112.942 74.2478 -111.12Q76.9757 -109.297 79.6108 -107.343Q82.2459 -105.388 84.782 -103.307Q87.318 -101.226 89.7489 -99.0226Q92.1797 -96.8194 94.4996 -94.4996Q96.8194 -92.1797 99.0226 -89.7489Q101.226 -87.318 103.307 -84.782Q105.388 -82.2459 107.343 -79.6108Q109.297 -76.9757 111.12 -74.2478Q112.942 -71.52 114.629 -68.706Q116.316 -65.892 117.862 -62.9987Q119.409 -60.1053 120.811 -57.1396Q122.214 -54.1738 123.47 -51.1428Q124.725 -48.1118 125.83 -45.0228Q126.936 -41.9339 127.888 -38.7944Q128.84 -35.6549 129.637 -32.4725Q130.435 -29.2901 131.075 -26.0724Q131.715 -22.8547 132.196 -19.6094Q132.677 -16.3642 132.999 -13.0993Q133.321 -9.83432 133.482 -6.55753Q133.643 -3.28074 133.643 0Q133.643 2.91609 133.515 5.82941Q133.388 8.74273 133.134 11.6477Q132.88 14.5527 132.499 17.4439Q132.119 20.335 131.612 23.2068Q131.106 26.0786 130.475 28.9256Q129.844 31.7725 129.089 34.5892Q128.334 37.406 127.457 40.1871Q126.58 42.9682 125.583 45.7085Q124.586 48.4487 123.47 51.1428Q122.354 53.8369 121.121 56.4798Q119.889 59.1227 118.542 61.7093Q117.196 64.2959 115.738 66.8213Q114.28 69.3467 112.713 71.8061Q111.146 74.2655 109.474 76.6542Q107.801 79.043 106.026 81.3565Q104.251 83.6699 102.376 85.9038Q100.502 88.1377 98.5317 90.2876Q96.5616 92.4376 94.4996 94.4996Q92.4376 96.5616 90.2876 98.5317Q88.1377 100.502 85.9038 102.376Q83.6699 104.251 81.3565 106.026Q79.043 107.801 76.6542 109.474Q74.2655 111.146 71.8061 112.713Q69.3467 114.28 66.8213 115.738Q64.2959 117.196 61.7093 118.542Q59.1227 119.889 56.4798 121.121Q53.8369 122.354 51.1428 123.47Q48.4487 124.586 45.7085 125.583Q42.9682 126.58 40.1871 127.457Q37.406 128.334 34.5892 129.089Q31.7725 129.844 28.9256 130.475Q26.0786 131.106 23.2068 131.612L0 0Z"/>
		<text transform="translate(379.88 208.585)" font-size="20" font-family="DejaVu Serif" x="-12.724609, 0, " y="4.7070312, ">
				17
		</text>
		<path fill="#FFF4C7" transform="translate(300 215.573)" d="M0 0L23.2068 131.612Q20.335 132.119 17.4439 132.499Q14.5527 132.88 11.6477 133.134Q8.74273 133.388 5.82941 133.515Q2.9161 133.643 3.33786e-06 133.643Q-2.91609 133.643 -5.8294 133.515Q-8.74272 133.388 -11.6477 133.134Q-14.5527 132.88 -17.4439 132.499Q-20.335 132.119 -23.2068 131.612L0 0Z"/>
		<path fill="none" stroke="black" stroke-width="1" stroke-miterlimit="4" transform="translate(300 215.573)" d="M0 0L23.2068 131.612Q20.335 132.119 17.4439 132.499Q14.5527 132.88 11.6477 133.134Q8.74273 133.388 5.82941 133.515Q2.9161 133.643 3.33786e-06 133.643Q-2.91609 133.643 -5.8294 133.515Q-8.74272 133.388 -11.6477 133.134Q-14.5527 132.88 -17.4439 132.499Q-20.335 132.119 -23.2068 131.612L0 0Z"/>
		<text transform="translate(300 295.759)" font-size="20" font-family="DejaVu Serif" x="-6.3623047, " y="4.7070312, ">
				2
		</text>
		<path fill="#FEDDD7" transform="translate(300 215.573)" d="M0 0L-23.2068 131.612Q-26.4377 131.043 -29.6367 130.315Q-32.8358 129.587 -35.9953 128.704Q-39.1548 127.82 -42.2671 126.783Q-45.3795 125.745 -48.4371 124.556Q-51.4948 123.367 -54.4905 122.029Q-57.4861 120.692 -60.4125 119.208Q-63.3389 117.725 -66.189 116.101Q-69.0392 114.476 -71.8061 112.713Q-74.573 110.95 -77.2502 109.054Q-79.9273 107.157 -82.5081 105.132Q-85.089 103.107 -87.5673 100.957Q-90.0457 98.8073 -92.4156 96.5386Q-94.7855 94.2699 -97.0412 91.8877Q-99.2969 89.5054 -101.433 87.0154Q-103.569 84.5254 -105.58 81.9335Q-107.592 79.3416 -109.474 76.6542Q-111.355 73.9668 -113.103 71.1903Q-114.851 68.4138 -116.46 65.5548Q-118.069 62.6959 -119.536 59.7615Q-121.003 56.827 -122.325 53.8241Q-123.646 50.8212 -124.818 47.7571Q-125.991 44.693 -127.011 41.575Q-128.032 38.4571 -128.898 35.2928Q-129.765 32.1285 -130.475 28.9255Q-131.185 25.7226 -131.737 22.4886Q-132.289 19.2547 -132.682 15.9975Q-133.074 12.7403 -133.307 9.46785Q-133.539 6.19535 -133.611 2.91539Q-133.682 -0.364567 -133.593 -3.64409Q-133.503 -6.92361 -133.253 -10.1948Q-133.003 -13.466 -132.592 -16.7209Q-132.182 -19.9759 -131.612 -23.2068Q-131.169 -25.7195 -130.631 -28.2135Q-130.092 -30.7075 -129.458 -33.1791Q-128.825 -35.6507 -128.098 -38.0963Q-127.37 -40.5419 -126.55 -42.958Q-125.73 -45.3741 -124.818 -47.7571Q-123.906 -50.1401 -122.904 -52.4866Q-121.902 -54.8331 -120.811 -57.1396Q-119.721 -59.4461 -118.542 -61.7093Q-117.364 -63.9725 -116.101 -66.1891Q-114.837 -68.4056 -113.49 -70.5723Q-112.142 -72.7391 -110.713 -74.8528Q-109.284 -76.9665 -107.775 -79.0241Q-106.267 -81.0818 -104.68 -83.0803Q-103.094 -85.0789 -101.433 -87.0154Q-99.7717 -88.952 -98.0378 -90.8237Q-96.3038 -92.6954 -94.4996 -94.4996Q-92.6954 -96.3038 -90.8237 -98.0378Q-88.952 -99.7717 -87.0154 -101.433Q-85.0789 -103.094 -83.0803 -104.68Q-81.0818 -106.267 -79.0241 -107.775Q-76.9665 -109.284 -74.8528 -110.713Q-72.7391 -112.142 -70.5723 -113.49Q-68.4056 -114.837 -66.189 -116.101Q-63.9725 -117.364 -61.7093 -118.542Q-59.4461 -119.721 -57.1396 -120.811Q-54.833 -121.902 -52.4866 -122.904Q-50.1401 -123.907 -47.7571 -124.818Q-45.3741 -125.73 -42.958 -126.55Q-40.5419 -127.37 -38.0963 -128.098Q-35.6507 -128.825 -33.1791 -129.458Q-30.7075 -130.092 -28.2135 -130.631Q-25.7195 -131.169 -23.2068 -131.612L0 0Z"/>
		<path fill="none" stroke="black" stroke-width="1" stroke-miterlimit="4" transform="translate(300 215.573)" d="M0 0L-23.2068 131.612Q-26.4377 131.043 -29.6367 130.315Q-32.8358 129.587 -35.9953 128.704Q-39.1548 127.82 -42.2671 126.783Q-45.3795 125.745 -48.4371 124.556Q-51.4948 123.367 -54.4905 122.029Q-57.4861 120.692 -60.4125 119.208Q-63.3389 117.725 -66.189 116.101Q-69.0392 114.476 -71.8061 112.713Q-74.573 110.95 -77.2502 109.054Q-79.9273 107.157 -82.5081 105.132Q-85.089 103.107 -87.5673 100.957Q-90.0457 98.8073 -92.4156 96.5386Q-94.7855 94.2699 -97.0412 91.8877Q-99.2969 89.5054 -101.433 87.0154Q-103.569 84.5254 -105.58 81.9335Q-107.592 79.3416 -109.474 76.6542Q-111.355 73.9668 -113.103 71.1903Q-114.851 68.4138 -116.46 65.5548Q-118.069 62.6959 -119.536 59.7615Q-121.003 56.827 -122.325 53.8241Q-123.646 50.8212 -124.818 47.7571Q-125.991 44.693 -127.011 41.575Q-128.032 38.4571 -128.898 35.2928Q-129.765 32.1285 -130.475 28.9255Q-131.185 25.7226 -131.737 22.4886Q-132.289 19.2547 -132.682 15.9975Q-133.074 12.7403 -133.307 9.46785Q-133.539 6.19535 -133.611 2.91539Q-133.682 -0.364567 -133.593 -3.64409Q-133.503 -6.92361 -133.253 -10.1948Q-133.003 -13.466 -132.592 -16.7209Q-132.182 -19.9759 -131.612 -23.2068Q-131.169 -25.7195 -130.631 -28.2135Q-130.092 -30.7075 -129.458 -33.1791Q-128.825 -35.6507 -128.098 -38.0963Q-127.37 -40.5419 -126.55 -42.958Q-125.73 -45.3741 -124.818 -47.7571Q-123.906 -50.1401 -122.904 -52.4866Q-121.902 -54.8331 -120.811 -57.1396Q-119.721 -59.4461 -118.542 -61.7093Q-117.364 -63.9725 -116.101 -66.1891Q-114.837 -68.4056 -113.49 -70.5723Q-112.142 -72.7391 -110.713 -74.8528Q-109.284 -76.9665 -107.775 -79.0241Q-106.267 -81.0818 -104.68 -83.0803Q-103.094 -85.0789 -101.433 -87.0154Q-99.7717 -88.952 -98.0378 -90.8237Q-96.3038 -92.6954 -94.4996 -94.4996Q-92.6954 -96.3038 -90.8237 -98.0378Q-88.952 -99.7717 -87.0154 -101.433Q-85.0789 -103.094 -83.0803 -104.68Q-81.0818 -106.267 -79.0241 -107.775Q-76.9665 -109.284 -74.8528 -110.713Q-72.7391 -112.142 -70.5723 -113.49Q-68.4056 -114.837 -66.189 -116.101Q-63.9725 -117.364 -61.7093 -118.542Q-59.4461 -119.721 -57.1396 -120.811Q-54.833 -121.902 -52.4866 -122.904Q-50.1401 -123.907 -47.7571 -124.818Q-45.3741 -125.73 -42.958 -126.55Q-40.5419 -127.37 -38.0963 -128.098Q-35.6507 -128.825 -33.1791 -129.458Q-30.7075 -130.092 -28.2135 -130.631Q-25.7195 -131.169 -23.2068 -131.612L0 0Z"/>
		<text transform="translate(219.814 215.573)" font-size="20" font-family="DejaVu Serif" x="-12.724609, 0, " y="4.7070312, ">
				16
		</text>
		<path fill="#878787" transform="translate(300 215.573)" d="M0 0L-23.2068 -131.612Q-11.6922 -133.643 0 -133.643L0 0Z"/>
		<path fill="none" stroke="black" stroke-width="1" stroke-miterlimit="4" transform="translate(300 215.573)" d="M0 0L-23.2068 -131.612Q-11.6922 -133.643 0 -133.643L0 0Z"/>
		<text transform="translate(293.011 135.693)" font-size="20" font-family="DejaVu Serif" x="-6.3623047, " y="4.7070312, ">
				1
		</text>
	</g>
	<rect fill="#010101" fill-opacity="0.2" x="444.08398" y="312.125" width="151.91602" height="83.875"/>
	<rect fill="white" x="441.08398" y="309.125" width="151.91602" height="83.875"/>
	<clipPath id="cl_5">
		<rect x="450.08398" y="313.125" width="133.91602" height="75.875"/>
	</clipPath>
	<g clip-path="url(#cl_5)">
		<text transform="translate(476.084 321.109)" font-size="12" font-family="DejaVu Serif" x="0, 8.0742188, 15.228516, 21.386719, 27.544922, 34.646484, " y="2.8242188, ">
				Passed
		</text>
		<rect fill="#DFF0D0" x="451.08398" y="316.91876" width="20" height="8.3812256"/>
		<text transform="translate(476.084 341.078)" font-size="12" font-family="DejaVu Serif" x="0, 10.113281, 17.841797, 24.996094, 32.677734, 36.515625, 43.617188, 47.431641, 52.253906, 59.478516, 63.292969, 70.974609, 78.076172, 82.898438, 90, 96.720703, " y="2.8242188, ">
				Unable to detect
		</text>
		<rect fill="#FFF4C7" x="451.08398" y="336.88751" width="20" height="8.3812256"/>
		<text transform="translate(476.084 361.047)" font-size="12" font-family="DejaVu Serif" x="0, 10.5, 17.724609, 22.546875, 26.361328, 31.101562, 42.480469, 50.162109, 54, 61.101562, 72.480469, 79.582031, 87.310547, 92.132812, 99.234375, " y="2.8242188, ">
				Not Implemented
		</text>
		<rect fill="#FEDDD7" x="451.08398" y="356.85626" width="20" height="8.3812256"/>
		<text transform="translate(476.084 381.016)" font-size="12" font-family="DejaVu Serif" x="0, 8.2207031, 15.949219, 23.630859, 31.3125, 37.048828, 44.150391, 50.308594, 56.466797, 63.568359, " y="2.8242188, ">
				Suppressed
		</text>
		<rect fill="#878787" x="451.08398" y="376.82501" width="20" height="8.3812256"/>
	</g>
	<text transform="translate(300 31.1465)" font-size="18" font-weight="600" font-family="DejaVu Serif" x="-72.360352, -57.146484, -45.694336, -35.560547, -27.246094, -20.979492, -7.4443359, 2.0390625, 13.702148, 24.662109, 32.976562, 39.814453, 50.774414, 62.226562, " y="-7.0048828, ">
			Best Practices
	</text>
	<path fill="none" stroke="#006400" stroke-width="2" stroke-miterlimit="4" d="M1 399L1 1L599 1L599 399L1 399"/>
</svg>
